<svg xmlns="http://www.w3.org/2000/svg" xmlns:xlink="http://www.w3.org/1999/xlink" width="150" zoomAndPan="magnify" viewBox="0 0 112.5 60" height="80" preserveAspectRatio="xMidYMid meet" version="1.0"><defs><clipPath id="2812519ce0"><path d="M 0 0.132812 L 112.003906 0.132812 L 112.003906 59.867188 L 0 59.867188 Z M 0 0.132812 " clip-rule="nonzero"/></clipPath><clipPath id="bb47663c7b"><path d="M 5.972656 12 L 43 12 L 43 59.867188 L 5.972656 59.867188 Z M 5.972656 12 " clip-rule="nonzero"/></clipPath><clipPath id="3acf9122dc"><path d="M 92 12 L 106.027344 12 L 106.027344 27 L 92 27 Z M 92 12 " clip-rule="nonzero"/></clipPath><clipPath id="596560d172"><path d="M 47 0.132812 L 69 0.132812 L 69 11 L 47 11 Z M 47 0.132812 " clip-rule="nonzero"/></clipPath></defs><g clip-path="url(#2812519ce0)"><path fill="#ffffff" d="M 0 0.132812 L 112.003906 0.132812 L 112.003906 59.867188 L 0 59.867188 Z M 0 0.132812 " fill-opacity="1" fill-rule="nonzero"/><path fill="#fcfbff" d="M 0 0.132812 L 112.003906 0.132812 L 112.003906 59.867188 L 0 59.867188 Z M 0 0.132812 " fill-opacity="1" fill-rule="nonzero"/></g><g clip-path="url(#bb47663c7b)"><path fill="#4ff4a7" d="M 19.148438 48.351562 L 19.148438 28.558594 L 15.90625 44.605469 C 15.863281 44.898438 15.65625 45.066406 15.359375 45.066406 L 12.960938 45.066406 C 12.667969 45.066406 12.457031 44.898438 12.414062 44.605469 L 9.257812 28.8125 L 9.257812 44.519531 C 9.257812 44.855469 9.046875 45.070312 8.707031 45.070312 L 6.519531 45.070312 C 6.183594 45.070312 5.972656 44.855469 5.972656 44.519531 L 5.972656 12.726562 C 5.972656 12.390625 6.183594 12.179688 6.519531 12.179688 L 8.835938 12.179688 C 9.128906 12.179688 9.339844 12.347656 9.382812 12.640625 L 14.140625 38.496094 L 19.019531 12.644531 C 19.0625 12.347656 19.273438 12.179688 19.570312 12.179688 L 21.882812 12.179688 C 22.222656 12.179688 22.433594 12.390625 22.433594 12.726562 L 22.433594 48.351562 C 22.433594 52.859375 26.09375 56.566406 30.640625 56.566406 C 35.1875 56.566406 38.550781 53.152344 38.847656 48.902344 C 38.847656 48.5625 39.058594 48.351562 39.394531 48.351562 L 41.585938 48.351562 C 41.921875 48.351562 42.132812 48.5625 42.132812 48.902344 C 41.835938 54.964844 36.785156 59.847656 30.640625 59.847656 C 24.496094 59.847656 19.148438 54.667969 19.148438 48.351562 Z M 19.148438 48.351562 " fill-opacity="1" fill-rule="nonzero"/></g><path fill="#4ff4a7" d="M 29.375 45.027344 L 27.1875 45.027344 C 26.851562 45.027344 26.640625 44.816406 26.640625 44.476562 L 26.640625 12.726562 C 26.640625 12.390625 26.851562 12.179688 27.1875 12.179688 L 29.375 12.179688 C 29.710938 12.179688 29.921875 12.390625 29.921875 12.726562 L 29.921875 44.476562 C 29.921875 44.816406 29.710938 45.027344 29.375 45.027344 Z M 29.375 45.027344 " fill-opacity="1" fill-rule="nonzero"/><path fill="#fcfbff" d="M 36.449219 26.769531 L 34.332031 26.769531 L 34.332031 12.316406 L 37.121094 12.316406 L 42.382812 24.144531 L 47.644531 12.316406 L 50.433594 12.316406 L 50.433594 26.769531 L 48.335938 26.769531 L 48.335938 15.882812 L 43.535156 26.769531 L 41.230469 26.769531 L 36.449219 15.925781 Z M 36.449219 26.769531 " fill-opacity="1" fill-rule="nonzero"/><path fill="#fcfbff" d="M 64.542969 26.769531 L 62.296875 26.769531 L 61.25 23.683594 L 54.792969 23.683594 L 53.746094 26.769531 L 51.503906 26.769531 L 56.597656 12.527344 L 59.386719 12.378906 Z M 55.445312 21.734375 L 60.578125 21.734375 L 58.023438 14.140625 Z M 55.445312 21.734375 " fill-opacity="1" fill-rule="nonzero"/><path fill="#fcfbff" d="M 77.980469 26.769531 L 75.167969 26.769531 L 72.128906 22.785156 C 71.835938 22.804688 71.542969 22.804688 71.25 22.804688 L 67.683594 22.804688 L 67.683594 26.769531 L 65.589844 26.769531 L 65.589844 12.316406 L 71.25 12.316406 C 74.855469 12.316406 78.125 13.492188 78.125 17.601562 C 78.125 20.414062 76.617188 21.796875 74.5 22.40625 Z M 71.25 20.855469 C 74.183594 20.855469 75.945312 20.035156 75.945312 17.601562 C 75.945312 15.167969 74.183594 14.269531 71.25 14.269531 L 67.683594 14.269531 L 67.683594 20.855469 Z M 71.25 20.855469 " fill-opacity="1" fill-rule="nonzero"/><path fill="#fcfbff" d="M 91.792969 24.0625 L 92.445312 25.929688 C 91.039062 26.472656 89.507812 26.851562 87.058594 26.851562 C 82.570312 26.851562 79.175781 24.542969 79.175781 19.550781 C 79.175781 14.558594 82.570312 12.253906 87.058594 12.253906 C 88.964844 12.253906 90.726562 12.546875 92.027344 12.964844 L 91.460938 14.875 C 90.558594 14.601562 88.566406 14.222656 87.058594 14.222656 C 83.261719 14.222656 81.355469 16.027344 81.355469 19.550781 C 81.355469 23.074219 83.261719 24.878906 87.058594 24.878906 C 89.027344 24.878906 90.703125 24.480469 91.792969 24.0625 Z M 91.792969 24.0625 " fill-opacity="1" fill-rule="nonzero"/><g clip-path="url(#3acf9122dc)"><path fill="#fcfbff" d="M 106.027344 26.769531 L 103.785156 26.769531 L 102.738281 23.683594 L 96.28125 23.683594 L 95.234375 26.769531 L 92.992188 26.769531 L 98.085938 12.527344 L 100.871094 12.378906 L 106.03125 26.769531 Z M 96.929688 21.734375 L 102.066406 21.734375 L 99.511719 14.140625 L 96.933594 21.734375 Z M 96.929688 21.734375 " fill-opacity="1" fill-rule="nonzero"/></g><path fill="#fcfbff" d="M 39.546875 44.242188 C 37.363281 44.242188 35.804688 43.980469 34.226562 43.492188 L 34.714844 41.796875 C 35.710938 42.097656 37.648438 42.457031 39.414062 42.457031 C 41.6875 42.457031 43.847656 42.117188 43.847656 40.238281 C 43.847656 39.089844 42.703125 38.601562 40.054688 38.433594 C 37.195312 38.246094 34.09375 37.832031 34.09375 34.933594 C 34.09375 32.039062 37.007812 31.15625 39.902344 31.15625 C 41.613281 31.15625 43.226562 31.378906 44.414062 31.699219 L 44.09375 33.429688 C 43.246094 33.242188 41.234375 32.921875 39.902344 32.921875 C 37.625 32.921875 36.085938 33.355469 36.085938 34.859375 C 36.085938 36.175781 37.984375 36.382812 40.222656 36.53125 C 43.023438 36.703125 45.804688 37.320312 45.804688 40.066406 C 45.804688 43.414062 42.550781 44.242188 39.542969 44.242188 Z M 39.546875 44.242188 " fill-opacity="1" fill-rule="nonzero"/><path fill="#fcfbff" d="M 58.1875 31.210938 L 58.039062 32.960938 L 53.019531 32.960938 L 53.019531 44.167969 L 51.140625 44.167969 L 51.140625 32.960938 L 45.972656 32.960938 L 46.125 31.210938 L 58.191406 31.210938 Z M 58.1875 31.210938 " fill-opacity="1" fill-rule="nonzero"/><path fill="#fcfbff" d="M 72.960938 37.433594 C 72.960938 42.265625 70.3125 44.242188 66.289062 44.242188 C 62.265625 44.242188 59.636719 42.265625 59.636719 37.433594 L 59.636719 31.210938 L 61.515625 31.210938 L 61.515625 37.433594 C 61.515625 40.761719 62.867188 42.457031 66.289062 42.457031 C 69.710938 42.457031 71.0625 40.761719 71.0625 37.433594 L 71.0625 31.210938 L 72.960938 31.210938 Z M 72.960938 37.433594 " fill-opacity="1" fill-rule="nonzero"/><path fill="#fcfbff" d="M 75.121094 44.167969 L 75.121094 31.210938 L 79.519531 31.210938 C 83.675781 31.210938 86.867188 33.222656 86.867188 37.699219 C 86.867188 42.175781 83.675781 44.167969 79.519531 44.167969 Z M 77.019531 42.417969 L 79.519531 42.417969 C 83.054688 42.417969 84.894531 40.859375 84.894531 37.699219 C 84.894531 34.539062 83.054688 32.957031 79.519531 32.957031 L 77.019531 32.957031 Z M 77.019531 42.417969 " fill-opacity="1" fill-rule="nonzero"/><path fill="#fcfbff" d="M 88.277344 31.210938 L 90.175781 31.210938 L 90.175781 44.167969 L 88.277344 44.167969 Z M 88.277344 31.210938 " fill-opacity="1" fill-rule="nonzero"/><path fill="#fcfbff" d="M 91.585938 37.699219 C 91.585938 33.207031 94.6875 31.15625 98.710938 31.15625 C 102.734375 31.15625 105.835938 33.203125 105.835938 37.699219 C 105.835938 42.195312 102.75 44.242188 98.710938 44.242188 C 94.667969 44.242188 91.585938 42.175781 91.585938 37.699219 Z M 93.558594 37.699219 C 93.558594 40.3125 94.855469 42.4375 98.710938 42.4375 C 102.5625 42.4375 103.878906 40.3125 103.878906 37.699219 C 103.878906 35.085938 102.582031 32.960938 98.710938 32.960938 C 94.839844 32.960938 93.558594 35.066406 93.558594 37.699219 Z M 93.558594 37.699219 " fill-opacity="1" fill-rule="nonzero"/><g clip-path="url(#596560d172)"><path fill="#4ff4a7" d="M 65.3125 10.765625 C 65.3125 6.605469 61.929688 3.183594 57.734375 3.183594 C 53.539062 3.183594 50.429688 6.332031 50.15625 10.257812 C 50.15625 10.570312 49.960938 10.765625 49.652344 10.765625 L 47.628906 10.765625 C 47.320312 10.765625 47.125 10.570312 47.125 10.257812 C 47.398438 4.660156 52.0625 0.152344 57.734375 0.152344 C 63.40625 0.152344 68.34375 4.933594 68.34375 10.765625 " fill-opacity="1" fill-rule="nonzero"/></g><path fill="#fcfbff" d="M 54.328125 8.964844 C 53.394531 8.964844 52.636719 9.71875 52.628906 10.648438 L 56.027344 10.648438 C 56.015625 9.71875 55.261719 8.964844 54.328125 8.964844 Z M 54.328125 8.964844 " fill-opacity="1" fill-rule="nonzero"/><path fill="#fcfbff" d="M 61.464844 8.964844 C 60.535156 8.964844 59.777344 9.71875 59.769531 10.648438 L 63.164062 10.648438 C 63.15625 9.71875 62.398438 8.964844 61.46875 8.964844 Z M 61.464844 8.964844 " fill-opacity="1" fill-rule="nonzero"/><path fill="#4ff4a7" d="M 56.597656 12.527344 L 59.382812 12.378906 L 58.019531 14.15625 Z M 56.597656 12.527344 " fill-opacity="1" fill-rule="nonzero"/></svg>